#!OML:ASF E:\emotionWalksFemale\Project 1\Capture day 1\Session 1\Female1.ASF
:FULLY-SPECIFIED
:DEGREES
827
root 7.65155 15.518 11.8515 174.999 12.326 175.343
lowerback -2.32019 0.333933 3.6825
upperback -1.05991 0.394693 0.0391458
thorax 0.236811 0.198582 -2.01426
lowerneck -3.71185 0.504987 -2.03972
upperneck 27.831 4.58132 -3.24148
head 9.41224 2.65219 -0.183388
rclavicle 2.37548e-014 3.97569e-014
rhumerus -103.488 49.9287 -130.589
rradius 95.6199
rwrist -13.1189
rhand -5.13246 -56.2804
rfingers 7.12502
rthumb -159.334 -625.2
lclavicle 2.37548e-014 3.97569e-014
lhumerus -84.6792 -26.8668 95.1401
lradius 108.554
lwrist -11.5171
lhand 35.6579 -27.5534
lfingers 7.12502
lthumb 58.7089 -12.4856
rfemur -11.7539 -4.8562 11.1172
rtibia 71.4415
rfoot 0.455402 -11.5563
rtoes 4.10867
lfemur 3.46961 -10.6529 -35.0963
ltibia 10.9346
lfoot -14.789 13.1744
ltoes -17.8918
828
root 7.63153 15.5088 11.8065 175.068 12.173 175.181
lowerback -1.59107 0.178186 3.33716
upperback -1.4201 0.239195 0.292744
thorax -0.552922 0.109385 -1.56759
lowerneck -4.02496 0.443312 -2.14536
upperneck 28.3669 4.70001 -3.48444
head 9.67467 2.68538 -0.222657
rclavicle -1.77912e-014 -2.14687e-014
rhumerus -104.232 49.7177 -130.725
rradius 95.8274
rwrist -13.6699
rhand -4.99986 -55.9518
rfingers 7.12502
rthumb -159.206 -624.858
lclavicle -1.77912e-014 -2.14687e-014
lhumerus -85.3509 -26.3875 95.7278
lradius 108.421
lwrist -11.584
lhand 31.4239 -27.2854
lfingers 7.12502
lthumb 54.9823 -9.13395
rfemur -12.8354 -5.09218 11.1915
rtibia 71.9023
rfoot -0.92069 -11.7023
rtoes 4.33426
lfemur 3.59977 -10.5472 -35.392
ltibia 10.8434
lfoot -15.0358 13.0199
ltoes -18.1395
829
root 7.61338 15.5007 11.7638 175.141 11.967 175.09
lowerback -1.81441 -0.0222791 3.22259
upperback -1.25502 -0.0390414 0.500838
thorax -0.272345 -0.0219675 -1.29332
lowerneck -3.99091 0.503408 -2.44402
upperneck 28.1866 4.84006 -3.65943
head 9.60665 2.69785 -0.22259
rclavicle -1.94809e-014 -1.03368e-014
rhumerus -104.297 50.0993 -130.566
rradius 95.9456
rwrist -14.3053
rhand -5.18011 -55.6525
rfingers 7.12502
rthumb -159.38 -624.577
lclavicle -1.94809e-014 -1.03368e-014
lhumerus -85.2751 -25.9062 95.775
lradius 108.301
lwrist -11.6275
lhand 29.4032 -27.0917
lfingers 7.12502
lthumb 53.1696 -7.70733
rfemur -13.869 -5.34418 11.3685
rtibia 72.2023
rfoot -2.16071 -12.0263
rtoes 5.14661
lfemur 3.60711 -10.533 -35.61
ltibia 10.9727
lfoot -15.2275 13.0059
ltoes -19.4002
830
root 7.59744 15.4906 11.7265 175.213 11.5976 175.074
lowerback -1.84047 -0.217384 3.15128
upperback -1.35263 -0.291019 0.649612
thorax -0.368366 -0.146819 -1.10456
lowerneck -3.2706 0.479563 -2.65384
upperneck 28.0365 4.86827 -3.71846
head 9.41692 2.72321 -0.216054
rclavicle 2.00773e-014 0
rhumerus -104.37 49.9086 -130.3
rradius 95.9828
rwrist -14.4502
rhand -4.77124 -55.2053
rfingers 7.12502
rthumb -158.987 -624.087
lclavicle 2.00773e-014 0
lhumerus -85.7761 -25.5056 95.9436
lradius 108.229
lwrist -11.7777
lhand 28.804 -27.1958
lfingers 7.12502
lthumb 52.6285 -7.47104
rfemur -14.8168 -5.70029 11.6524
rtibia 72.3355
rfoot -3.31095 -12.4871
rtoes 4.86104
lfemur 3.52936 -10.4187 -35.6979
ltibia 11.2105
lfoot -15.443 12.6158
ltoes -20.2974
831
root 7.5828 15.4794 11.694 175.283 10.9387 174.977
lowerback -1.74268 -0.61633 2.79972
upperback -1.56702 -0.79927 0.894009
thorax -0.655868 -0.398434 -0.661836
lowerneck -2.29894 0.537251 -2.98035
upperneck 27.8376 5.05659 -3.86377
head 9.16845 2.8202 -0.209838
rclavicle 0 0
rhumerus -104.937 49.9271 -130.381
rradius 95.9739
rwrist -14.4127
rhand -3.97178 -54.6581
rfingers 7.12502
rthumb -158.219 -623.453
lclavicle 0 0
lhumerus -86.335 -24.5764 96.1696
lradius 108.114
lwrist -11.7577
lhand 30.017 -28.007
lfingers 7.12502
lthumb 53.7222 -8.98286
rfemur -15.6761 -6.21599 11.8469
rtibia 72.3432
rfoot -4.64319 -12.8982
rtoes 4.05403
lfemur 3.39547 -10.2065 -35.8389
ltibia 11.5899
lfoot -15.5608 11.9493
ltoes -21.7899
832
root 7.57016 15.4705 11.6589 175.386 10.4593 174.947
lowerback -1.53764 -1.58193 1.80745
upperback -1.62735 -2.03684 1.98409
thorax -0.797501 -0.991671 1.00294
lowerneck -2.33707 1.17702 -4.47553
upperneck 27.6625 6.30552 -4.40785
head 9.12835 3.2175 -0.0359675
rclavicle -5.96354e-015 -1.59028e-015
rhumerus -107.691 52.1455 -132.08
rradius 96.0926
rwrist -14.7966
rhand -3.8435 -54.3
rfingers 7.12502
rthumb -158.096 -623.08
lclavicle -5.96354e-015 -1.59028e-015
lhumerus -86.1636 -21.3178 96.4495
lradius 107.846
lwrist -11.8879
lhand 29.3349 -27.5436
lfingers 7.12502
lthumb 53.108 -8.11986
rfemur -16.6312 -6.46179 12.1758
rtibia 72.2424
rfoot -6.13101 -13.3383
rtoes 3.83296
lfemur 3.13422 -10.059 -35.9152
ltibia 12.1875
lfoot -15.945 11.384
ltoes -21.8054
